<svg width="16" height="18" viewBox="0 0 16 18" fill="none" xmlns="http://www.w3.org/2000/svg">
<g clip-path="url(#clip0_0_229)">
<path d="M8.00356 4.95708C5.73214 4.95708 3.89999 6.7606 3.89999 8.99653C3.89999 11.2325 5.73214 13.036 8.00356 13.036C10.275 13.036 12.1071 11.2325 12.1071 8.99653C12.1071 6.7606 10.275 4.95708 8.00356 4.95708ZM8.00356 11.6227C6.53571 11.6227 5.33571 10.445 5.33571 8.99653C5.33571 7.5481 6.53214 6.37036 8.00356 6.37036C9.47499 6.37036 10.6714 7.5481 10.6714 8.99653C10.6714 10.445 9.47142 11.6227 8.00356 11.6227ZM13.2321 4.79185C13.2321 5.31567 12.8036 5.73403 12.275 5.73403C11.7429 5.73403 11.3179 5.31216 11.3179 4.79185C11.3179 4.27153 11.7464 3.84966 12.275 3.84966C12.8036 3.84966 13.2321 4.27153 13.2321 4.79185ZM15.95 5.7481C15.8893 4.48599 15.5964 3.36802 14.6571 2.44692C13.7214 1.52583 12.5857 1.23755 11.3036 1.17427C9.98214 1.10044 6.02142 1.10044 4.69999 1.17427C3.42142 1.23403 2.28571 1.52231 1.34642 2.44341C0.407136 3.3645 0.11785 4.48247 0.0535644 5.74458C-0.0214355 7.04536 -0.0214355 10.9442 0.0535644 12.245C0.114279 13.5071 0.407136 14.625 1.34642 15.5461C2.28571 16.4672 3.41785 16.7555 4.69999 16.8188C6.02142 16.8926 9.98214 16.8926 11.3036 16.8188C12.5857 16.759 13.7214 16.4708 14.6571 15.5461C15.5928 14.625 15.8857 13.5071 15.95 12.245C16.025 10.9442 16.025 7.04888 15.95 5.7481ZM14.2428 13.6407C13.9643 14.3297 13.425 14.8606 12.7214 15.1383C11.6679 15.5497 9.16785 15.4547 8.00356 15.4547C6.83928 15.4547 4.33571 15.5461 3.28571 15.1383C2.58571 14.8641 2.04642 14.3333 1.76428 13.6407C1.34642 12.6036 1.44285 10.1426 1.44285 8.99653C1.44285 7.85044 1.34999 5.38599 1.76428 4.35239C2.04285 3.66333 2.58214 3.13247 3.28571 2.85474C4.33928 2.44341 6.83928 2.53833 8.00356 2.53833C9.16785 2.53833 11.6714 2.44692 12.7214 2.85474C13.4214 3.12895 13.9607 3.65981 14.2428 4.35239C14.6607 5.3895 14.5643 7.85044 14.5643 8.99653C14.5643 10.1426 14.6607 12.6071 14.2428 13.6407Z" fill="black"/>
</g>
<defs>
<clipPath id="clip0_0_229">
<rect width="16" height="18" fill="white"/>
</clipPath>
</defs>
</svg>
