<svg width="110" height="30" viewBox="0 0 110 30" fill="none" xmlns="http://www.w3.org/2000/svg">
<g clip-path="url(#clip0_0_121)">
<path d="M74.3333 19.9847C73.8687 20.1221 73.3525 20.1965 72.7731 20.1965C72.2511 20.1965 71.7521 20.1049 71.2703 19.9275C70.7884 19.7501 70.3582 19.504 69.9797 19.1949C69.6011 18.8859 69.2913 18.5139 69.0619 18.0847C68.8325 17.6555 68.6948 17.1805 68.6546 16.6597H79.6219C79.5761 14.6509 79.4785 13.2659 79.1286 12.2987C78.7787 11.3315 78.2912 10.5189 77.6717 9.87217C77.0522 9.22547 76.3122 8.73329 75.4633 8.40136C74.6144 8.06942 73.6851 7.90918 72.6813 7.90918C71.5972 7.90918 70.5934 8.09232 69.6642 8.46431C68.7349 8.83631 67.9262 9.35138 67.2436 10.021C66.561 10.6906 66.0275 11.4975 65.6375 12.4475C65.2474 13.3975 65.0524 14.4506 65.0524 15.6123C65.0524 16.7913 65.2474 17.8443 65.6375 18.7772C66.0275 19.7043 66.5667 20.4941 67.2608 21.1293C67.9548 21.7703 68.7694 22.2625 69.7101 22.6116C70.6508 22.9607 71.6833 23.1381 72.8075 23.1381C74.0064 23.1381 75.0733 22.9378 76.0197 22.5601C75.0503 22.0793 74.3792 21.1179 74.3333 19.9847ZM69.9051 11.5776C70.6565 10.9309 71.5743 10.6047 72.6527 10.6047C73.232 10.6047 73.7368 10.702 74.1727 10.8909C74.6029 11.0797 74.9585 11.3373 75.2396 11.6577C75.5207 11.9782 75.7272 12.3445 75.8534 12.768C75.9853 13.1858 76.0484 13.6265 76.0484 14.0843H68.6546C68.7349 13.0599 69.1537 12.2243 69.9051 11.5776Z" fill="black"/>
<path d="M77.3562 21.6844C78.3731 21.6844 79.1975 20.8619 79.1975 19.8473C79.1975 18.8327 78.3731 18.0103 77.3562 18.0103C76.3393 18.0103 75.5149 18.8327 75.5149 19.8473C75.5149 20.8619 76.3393 21.6844 77.3562 21.6844Z" fill="black"/>
<path d="M27.9001 11.8008C27.7108 11.0797 27.3724 10.433 26.8905 9.855C26.4087 9.27698 25.7548 8.80769 24.9231 8.44714C24.0914 8.08659 23.0359 7.90918 21.7511 7.90918C20.8849 7.90918 20.0245 8.02936 19.1756 8.26973C19.8983 8.82486 20.3744 9.68903 20.3744 10.6677C20.3744 10.7306 20.3572 10.7879 20.3572 10.8451C20.7128 10.7707 21.0799 10.7306 21.4528 10.7306C22.3533 10.7306 23.1277 10.9481 23.7816 11.3773C24.4298 11.8065 24.7567 12.4704 24.7567 13.3689V13.7295C23.6325 13.7295 22.491 13.7867 21.3151 13.8954C20.145 14.0042 19.0781 14.2331 18.1144 14.5708C17.1508 14.9084 16.3649 15.4006 15.7569 16.0416C15.1431 16.6825 14.8391 17.541 14.8391 18.6169C14.8391 19.4582 15.017 20.1621 15.3668 20.7287C15.7167 21.301 16.1584 21.7589 16.6861 22.108C17.2139 22.4571 17.7989 22.7089 18.4299 22.8577C19.0609 23.0065 19.6689 23.0809 20.2482 23.0809C21.2692 23.0809 22.1813 22.8748 22.9843 22.4685C23.7874 22.0565 24.3667 21.5357 24.7281 20.8947H24.8198V22.726H28.1869V13.9698C28.1869 13.243 28.0894 12.5219 27.9001 11.8008ZM24.7567 16.6597C24.7567 17.7985 24.4355 18.697 23.7931 19.3552C23.1507 20.0133 22.2099 20.3453 20.971 20.3453C20.6727 20.3453 20.3687 20.3167 20.0704 20.2537C19.7721 20.1908 19.4968 20.0935 19.2616 19.9561C19.0207 19.8188 18.8257 19.6299 18.6765 19.401C18.5274 19.1721 18.4528 18.8859 18.4528 18.5482C18.4528 18.0103 18.6307 17.5868 18.992 17.272C19.3534 16.963 19.8008 16.7226 20.3457 16.5509C20.8849 16.3792 21.4757 16.2705 22.1182 16.219C22.7606 16.1675 23.3686 16.1446 23.9537 16.1446H24.7625V16.6597H24.7567Z" fill="black"/>
<path d="M17.3343 12.4933C18.3496 12.4933 19.1756 11.6691 19.1756 10.6562C19.1756 9.6432 18.3496 8.81909 17.3343 8.81909C16.319 8.81909 15.493 9.6432 15.493 10.6562C15.493 11.6691 16.319 12.4933 17.3343 12.4933Z" fill="black"/>
<path d="M13.0323 11.5605C12.8315 10.8623 12.516 10.2442 12.0858 9.7005C11.6556 9.16254 11.105 8.72759 10.4339 8.39565C9.76273 8.06372 8.95395 7.90348 8.01324 7.90348C7.47405 7.90348 6.96928 7.97215 6.5104 8.11523C6.05152 8.25258 5.63852 8.44144 5.27715 8.67036C4.91578 8.89928 4.6003 9.16254 4.33071 9.44869C4.06111 9.74056 3.85462 10.0324 3.71695 10.3358H3.65959V4.2522C3.14908 4.63564 2.52385 4.87028 1.84127 4.87028C1.17015 4.87028 0.556393 4.64708 0.0573578 4.28081V22.7146H3.66533V14.8569C3.66533 14.3762 3.73416 13.9069 3.87756 13.4491C4.01522 12.9912 4.22746 12.5734 4.50852 12.2072C4.78959 11.8352 5.13949 11.5433 5.55822 11.3201C5.97695 11.1026 6.48172 10.9882 7.06106 10.9882C7.6404 10.9882 8.10502 11.1084 8.46065 11.3487C8.81055 11.5891 9.08015 11.8924 9.26943 12.2644C9.45872 12.6364 9.58492 13.0427 9.64228 13.4949C9.69964 13.947 9.73405 14.3819 9.73405 14.7997V22.7146H13.342V13.7181C13.3363 12.9798 13.233 12.2644 13.0323 11.5605Z" fill="black"/>
<path d="M1.84127 3.67417C2.85655 3.67417 3.68254 2.85006 3.68254 1.83709C3.68254 0.824113 2.85655 0 1.84127 0C0.825989 0 0 0.824113 0 1.83709C0 2.85006 0.825989 3.67417 1.84127 3.67417Z" fill="black"/>
<path d="M91.7135 18.4281C92.2125 18.0732 92.8206 17.8558 93.4802 17.8558C94.1743 17.8558 94.8052 18.0961 95.3215 18.491V13.7238C95.3215 12.9855 95.224 12.2644 95.0232 11.5662C94.8224 10.868 94.507 10.2499 94.0768 9.7062C93.6466 9.16824 93.0959 8.73329 92.4248 8.40136C91.7537 8.06942 90.9449 7.90918 90.0042 7.90918C88.9201 7.90918 87.9851 8.18388 87.1935 8.73329C86.4019 9.2827 85.8455 9.91795 85.5243 10.6391H85.4612V8.33268H82.0368V22.7203H85.6448V14.7997C85.6448 14.3189 85.7136 13.8439 85.857 13.3747C85.9947 12.9054 86.2012 12.4876 86.4708 12.1328C86.7404 11.7722 87.0845 11.4803 87.509 11.2457C87.9277 11.0168 88.4325 10.9023 89.0118 10.9023C89.5912 10.9023 90.0558 11.0225 90.4114 11.2629C90.7613 11.5032 91.0367 11.8065 91.2374 12.1785C91.4382 12.5505 91.5701 12.9626 91.6275 13.4204C91.6848 13.8783 91.7192 14.3189 91.7192 14.7367V18.4281H91.7135Z" fill="black"/>
<path d="M93.4802 22.7261C94.4971 22.7261 95.3215 21.9036 95.3215 20.889C95.3215 19.8744 94.4971 19.0519 93.4802 19.0519C92.4633 19.0519 91.6389 19.8744 91.6389 20.889C91.6389 21.9036 92.4633 22.7261 93.4802 22.7261Z" fill="black"/>
<path d="M45.5269 12.4933C45.1885 11.5719 44.7067 10.7764 44.0872 10.0954C43.4677 9.41433 42.722 8.88209 41.8616 8.49293C41.0012 8.10376 40.0605 7.90918 39.0395 7.90918C38.3798 7.90918 37.7833 7.98358 37.2498 8.13238C36.7164 8.28118 36.2403 8.47003 35.8216 8.70468C35.4028 8.9336 35.0472 9.19686 34.7547 9.48301C34.4621 9.77488 34.2269 10.0553 34.0491 10.3357H33.9573V8.32696H30.5042V25.7421C31.0148 25.3643 31.6343 25.1297 32.3168 25.1297C32.988 25.1297 33.6017 25.3529 34.1065 25.7249V20.7974H34.1638C34.6227 21.5185 35.2824 22.0851 36.1313 22.5086C36.9802 22.9263 37.9209 23.1381 38.942 23.1381C40.0433 23.1381 41.0299 22.9321 41.9018 22.5257C42.7736 22.1137 43.5136 21.5643 44.1273 20.8775C44.7354 20.1908 45.2115 19.3781 45.5384 18.451C45.8711 17.5238 46.0317 16.528 46.0317 15.4693C46.0374 14.3991 45.8654 13.409 45.5269 12.4933ZM42.7622 17.1404C42.5901 17.7012 42.3377 18.1991 41.9935 18.6398C41.6551 19.0805 41.2192 19.441 40.7029 19.7215C40.1809 20.0019 39.5729 20.1392 38.8674 20.1392C38.2077 20.1392 37.6169 20.0019 37.095 19.7329C36.573 19.4639 36.1256 19.1091 35.7585 18.6684C35.3856 18.2278 35.1046 17.7356 34.9153 17.1862C34.726 16.6368 34.6285 16.0816 34.6285 15.5208C34.6285 14.9599 34.7202 14.4048 34.9153 13.8439C35.1046 13.2831 35.3856 12.7852 35.7585 12.3445C36.1313 11.9038 36.573 11.5433 37.095 11.2629C37.6169 10.9824 38.2077 10.8451 38.8674 10.8451C39.5672 10.8451 40.1809 10.9824 40.7029 11.2514C41.2249 11.5204 41.6551 11.8752 41.9935 12.3159C42.332 12.7566 42.5901 13.2487 42.7622 13.7982C42.9342 14.3476 43.0203 14.9027 43.0203 15.4635C43.0203 16.0187 42.9342 16.5795 42.7622 17.1404Z" fill="black"/>
<path d="M32.3168 30C33.3337 30 34.1581 29.1775 34.1581 28.1629C34.1581 27.1483 33.3337 26.3258 32.3168 26.3258C31.2999 26.3258 30.4756 27.1483 30.4756 28.1629C30.4756 29.1775 31.2999 30 32.3168 30Z" fill="black"/>
<path d="M62.9358 12.4933C62.5974 11.5719 62.1156 10.7764 61.4961 10.0954C60.8766 9.41433 60.1309 8.88209 59.2705 8.49293C58.4101 8.10376 57.4694 7.90918 56.4483 7.90918C55.7887 7.90918 55.1922 7.98358 54.6587 8.13238C54.1253 8.28118 53.6492 8.47003 53.2304 8.70468C52.8117 8.9336 52.4561 9.19686 52.1635 9.48301C51.871 9.77488 51.6358 10.0553 51.458 10.3357H51.3662V8.32696H47.9131V25.7421C48.4236 25.3643 49.0431 25.1297 49.7257 25.1297C50.3968 25.1297 51.0106 25.3529 51.5154 25.7249V20.7974H51.5727C52.0316 21.5185 52.6912 22.0851 53.5402 22.5086C54.3891 22.9263 55.3298 23.1381 56.3508 23.1381C57.4522 23.1381 58.4388 22.9321 59.3106 22.5257C60.1825 22.1137 60.9225 21.5643 61.5362 20.8775C62.1442 20.1908 62.6203 19.3781 62.9473 18.451C63.28 17.5238 63.4406 16.528 63.4406 15.4693C63.4463 14.3991 63.2742 13.409 62.9358 12.4933ZM60.171 17.1404C59.999 17.7012 59.7466 18.1991 59.4024 18.6398C59.064 19.0805 58.628 19.441 58.1118 19.7215C57.5898 20.0019 56.9818 20.1392 56.2763 20.1392C55.6166 20.1392 55.0258 20.0019 54.5038 19.7329C53.9819 19.4639 53.5344 19.1091 53.1673 18.6684C52.7945 18.2278 52.5134 17.7356 52.3241 17.1862C52.1348 16.6368 52.0373 16.0816 52.0373 15.5208C52.0373 14.9599 52.1291 14.4048 52.3241 13.8439C52.5134 13.2831 52.7945 12.7852 53.1673 12.3445C53.5402 11.9038 53.9819 11.5433 54.5038 11.2629C55.0258 10.9824 55.6166 10.8451 56.2763 10.8451C56.9761 10.8451 57.5898 10.9824 58.1118 11.2514C58.6338 11.5204 59.064 11.8752 59.4024 12.3159C59.7408 12.7566 59.999 13.2487 60.171 13.7982C60.3431 14.3476 60.4292 14.9027 60.4292 15.4635C60.4292 16.0187 60.3431 16.5795 60.171 17.1404Z" fill="black"/>
<path d="M49.7257 30C50.7426 30 51.567 29.1775 51.567 28.1629C51.567 27.1483 50.7426 26.3258 49.7257 26.3258C48.7088 26.3258 47.8844 27.1483 47.8844 28.1629C47.8844 29.1775 48.7088 30 49.7257 30Z" fill="black"/>
<path d="M107.66 12.1098C108.681 12.1098 109.501 11.2857 109.501 10.2728C109.501 9.25978 108.675 8.43567 107.66 8.43567C106.639 8.43567 105.813 9.25978 105.813 10.2728C105.813 11.2857 106.644 12.1098 107.66 12.1098Z" fill="black"/>
<path d="M104.614 10.2671C104.614 9.51737 104.895 8.84205 105.348 8.30981H97.765V11.1942H104.774C104.677 10.9023 104.614 10.5933 104.614 10.2671Z" fill="black"/>
<path d="M107.809 13.2945C107.757 13.2945 107.711 13.3117 107.66 13.3117C106.426 13.3117 105.371 12.5792 104.895 11.5319L98.9868 17.8558C99.0728 17.8501 99.1532 17.8329 99.2392 17.8329C100.427 17.8329 101.448 18.5197 101.947 19.5097L107.809 13.2945Z" fill="black"/>
<path d="M102.079 19.7902C102.205 20.1278 102.285 20.4884 102.285 20.8661C102.285 21.5757 102.033 22.2167 101.625 22.7318H109.868V19.7902H102.079Z" fill="black"/>
<path d="M99.2392 19.0233C98.2182 19.0233 97.3979 19.8474 97.3979 20.8661C97.3979 21.8848 98.2239 22.7032 99.2392 22.7032C100.26 22.7032 101.08 21.8791 101.08 20.8661C101.08 19.8474 100.254 19.0233 99.2392 19.0233Z" fill="black"/>
</g>
<defs>
<clipPath id="clip0_0_121">
<rect width="110" height="30" fill="white"/>
</clipPath>
</defs>
</svg>
