<svg width="96" height="30" viewBox="0 0 96 30" fill="none" xmlns="http://www.w3.org/2000/svg">
<g clip-path="url(#clip0_0_164)">
<path fill-rule="evenodd" clip-rule="evenodd" d="M20.2763 15.8127C19.3782 15.6233 16.7029 14.953 14.1056 16.7111C14.1029 16.71 14.1002 16.7091 14.0974 16.7082C13.8426 16.8734 13.5776 17.0223 13.304 17.1539C12.4806 17.5339 11.585 17.7307 10.6786 17.7307C9.77215 17.7307 8.87649 17.5339 8.05311 17.1539C7.25075 16.7777 6.52664 16.2526 5.91903 15.6064C5.30702 14.9535 4.81709 14.1955 4.47263 13.3686C4.1206 12.524 3.93933 11.6177 3.93933 10.7022C3.93933 9.7868 4.1206 8.88048 4.47263 8.03584C4.81245 7.20656 5.3029 6.44776 5.91903 5.79803C6.52957 5.15874 7.25313 4.6386 8.05295 4.26402C8.87634 3.88406 9.77199 3.68731 10.6784 3.68731C11.5848 3.68731 12.4805 3.88406 13.3038 4.26402C14.1038 4.63856 14.8275 5.15871 15.4382 5.79803C16.0542 6.44781 16.5446 7.2066 16.8843 8.03584C17.2365 8.88044 17.4179 9.78677 17.4179 10.7022C17.4179 11.6177 17.2365 12.524 16.8843 13.3686C16.8354 13.4843 16.7784 13.594 16.7243 13.7055C18.1076 13.577 19.5021 13.6484 20.8651 13.9178C21.1958 12.8758 21.3618 11.7884 21.3571 10.6949C21.3643 9.26746 21.0769 7.85393 20.513 6.54322C19.4247 3.97817 17.3877 1.9356 14.8296 0.844342C13.5143 0.277441 12.0962 -0.0100461 10.6646 1.08909e-05C9.24238 -0.00814023 7.83388 0.279349 6.52799 0.844342C3.96937 1.93532 1.93207 3.97818 0.844154 6.5437C0.279967 7.85434 -0.00745328 9.26792 -6.36504e-06 10.6954C-0.0103262 12.1276 0.277174 13.5462 0.844154 14.8608C1.93834 17.4187 3.9742 19.455 6.52799 20.5458C7.8337 21.1113 9.24223 21.3988 10.6645 21.3903C12.0961 21.4007 13.5142 21.1132 14.8293 20.5458C15.1999 20.3824 15.5617 20.1996 15.9131 19.998C15.953 19.9819 16 19.9643 16.0341 19.9482C16.8486 19.564 17.3838 19.3404 18.3198 19.3717C20.1403 19.4321 20.5512 20.3222 20.6517 21.0459H25.1957C25.1957 19.8016 24.1363 16.6271 20.2763 15.8127ZM40.16 5.75215H36.345V14.3617H36.3483C36.3423 15.2127 36.001 16.0269 35.3987 16.6265C34.7963 17.2262 33.982 17.5627 33.1332 17.5627C32.2844 17.5627 31.47 17.2262 30.8677 16.6265C30.2654 16.0269 29.9241 15.2127 29.9181 14.3617H29.9219V5.75215H26.1058V14.3617C26.1058 16.2304 26.8461 18.0226 28.164 19.344C29.4819 20.6655 31.2693 21.4078 33.1331 21.4078C34.9969 21.4078 36.7843 20.6655 38.1022 19.344C39.4201 18.0226 40.1605 16.2304 40.1605 14.3617V5.75215H40.16ZM92.1837 5.75215V10.8905H92.1854C92.1834 11.3413 92.086 11.7866 91.8998 12.197C91.7136 12.6074 91.4427 12.9735 91.1051 13.2712L91.1134 13.2722C93.1294 13.5732 94.6307 14.9878 94.6518 15.008C95.5252 13.8136 95.9968 12.3715 95.9982 10.8905H96V5.75215H92.1842H92.1837ZM96 21.1199C96 21.1133 96 21.107 96 21.1006V21.0728H95.9987C95.9934 20.1202 95.7935 19.1787 95.4115 18.3065C95.0295 17.4342 94.4735 16.6495 93.7776 16.0009L93.7817 15.9972C93.1897 15.4614 91.8862 14.2028 88.972 14.0981C87.2005 14.0339 85.7625 12.6626 85.7581 10.8907H85.7611V5.75215H81.9453V10.8698C81.9446 10.8738 81.9443 10.8778 81.9443 10.8818C81.9473 12.7104 82.6605 14.4659 83.9327 15.7761C85.2049 17.0863 86.9361 17.8481 88.759 17.8999C88.8029 17.9017 89.0027 17.9086 89.0182 17.9081C89.8533 17.9187 90.6513 18.2557 91.2424 18.8473C91.8335 19.4389 92.171 20.2384 92.1832 21.0757V22.9646H92.1869C92.187 22.9667 92.187 22.9688 92.1869 22.9709C92.1809 23.8219 91.8395 24.6361 91.2372 25.2357C90.6349 25.8354 89.8205 26.1719 88.9717 26.1719C88.1229 26.1719 87.3086 25.8354 86.7063 25.2357C86.104 24.6361 85.7626 23.8219 85.7566 22.9709C85.7566 22.9643 85.7587 21.9984 85.7587 21.9923C85.7587 21.9923 81.9448 22.0049 81.9441 22.0115C81.4865 26.7616 85.091 30 88.9723 30C90.8338 30.0024 92.62 29.2632 93.9379 27.945C95.2559 26.6269 95.9976 24.8378 96 22.9713C96.0002 22.9685 96.0002 22.9657 96 22.9628V21.1348C96 21.13 96 21.1248 96 21.1199ZM54.9454 23.6922C54.7758 24.2626 54.5031 24.797 54.1411 25.2688C53.7745 25.7393 53.3123 26.1264 52.7853 26.4043C52.1743 26.6952 51.5065 26.8462 50.8302 26.8462C50.1538 26.8462 49.486 26.6952 48.875 26.4043C48.3482 26.1265 47.8863 25.7394 47.52 25.2688C47.1577 24.7972 46.8852 24.2628 46.716 23.6922C46.549 23.1441 46.4607 22.5749 46.4538 22.0019H42.604C42.5978 23.1027 42.8166 24.1931 43.247 25.2058C43.6545 26.1612 44.2494 27.0246 44.9965 27.7447C45.753 28.4625 46.6422 29.0251 47.6141 29.4008C49.6841 30.1997 51.9761 30.1997 54.0461 29.4008C55.0179 29.0252 55.9072 28.4626 56.6637 27.7447C57.4106 27.0244 58.0056 26.161 58.4136 25.2058C58.8434 24.1929 59.0622 23.1026 59.0565 22.0019H55.2077C55.2003 22.5749 55.112 23.144 54.9454 23.6922ZM60.8706 5.85899C55.2138 5.79017 54.8635 11.0764 55.1005 12.1704H55.0845C55.1647 12.5471 55.2076 12.9309 55.2125 13.3162C55.2108 13.915 55.1206 14.5102 54.9448 15.0825C54.7752 15.6529 54.5026 16.1873 54.1405 16.659C53.7738 17.1295 53.3117 17.5166 52.7846 17.7947C52.1736 18.0854 51.5058 18.2362 50.8295 18.2362C50.1532 18.2362 49.4854 18.0854 48.8744 17.7947C48.3477 17.5167 47.8861 17.1295 47.52 16.659C47.1576 16.1875 46.8851 15.6531 46.716 15.0825C46.5398 14.5101 46.4494 13.9146 46.448 13.3155C46.4489 12.7218 46.5392 12.1316 46.716 11.5649C46.8879 11.0005 47.1603 10.4718 47.52 10.0046C47.8847 9.53632 48.3476 9.15405 48.8758 8.88482C49.4897 8.6046 50.1564 8.4596 50.831 8.4596C51.5055 8.4596 52.1722 8.6046 52.7861 8.88482C53.2002 9.10541 53.5733 9.39598 53.889 9.74375C53.9013 9.68969 53.905 9.63242 53.9184 9.57867C54.1004 8.7861 54.444 8.03986 54.9277 7.38691C55.119 7.13676 55.3352 6.90685 55.5731 6.70076C55.0926 6.39236 54.5807 6.13595 54.0462 5.93584C51.9687 5.17891 49.6918 5.17891 47.6142 5.93584C46.6431 6.29067 45.7529 6.83753 44.9966 7.54397C44.2505 8.25271 43.6554 9.10571 43.2472 10.0515C42.8053 11.0818 42.585 12.194 42.6006 13.3155C42.5859 14.442 42.8061 15.5592 43.247 16.5955C43.6545 17.5508 44.2494 18.4142 44.9965 19.1342C45.753 19.8521 46.6422 20.4147 47.6141 20.7903C49.684 21.5894 51.9761 21.5894 54.0461 20.7903C55.0179 20.4147 55.9072 19.8521 56.6637 19.1342C57.4106 18.4139 58.0056 17.5506 58.4136 16.5955C58.8541 15.5591 59.0743 14.442 59.0602 13.3155C59.0602 13.1087 59.045 12.9101 59.032 12.7097L59.0546 12.713V12.5031C59.0556 12.1122 59.0872 11.722 59.1491 11.336C59.2078 10.9503 59.3305 10.5771 59.512 10.2319C59.6919 9.89441 59.9586 9.61135 60.2845 9.41215C60.6597 9.20397 61.0831 9.09882 61.5118 9.10734H63.311V5.85691L60.8706 5.85899ZM79.5637 9.97541C79.2388 9.02854 78.7193 8.16062 78.0387 7.42782C77.392 6.74893 76.6026 6.22285 75.728 5.88771C74.7992 5.53484 73.8129 5.35883 72.8197 5.36873C71.7391 5.35922 70.6667 5.55671 69.66 5.9506C68.7074 6.31742 67.8411 6.87852 67.1159 7.59838C66.3907 8.31824 65.8224 9.18119 65.447 10.1326C65.0273 11.1873 64.819 12.3146 64.8339 13.4501C64.8149 14.5861 65.0234 15.7145 65.447 16.7682C65.8288 17.704 66.4079 18.546 67.1446 19.2363C67.8878 19.9199 68.7587 20.449 69.707 20.7932C70.745 21.1692 71.8418 21.3556 72.9454 21.3436C75.0811 21.3771 77.1527 20.6124 78.757 19.1984L76.6986 16.7621C76.3698 17.1005 75.4742 17.6519 75.3037 17.7428C74.6535 18.089 73.857 18.262 72.9139 18.2617C72.3771 18.2633 71.8445 18.1673 71.3419 17.9784C70.8522 17.7978 70.3955 17.5377 69.9901 17.2083C69.5957 16.8889 69.2696 16.4931 69.0312 16.0446C68.7865 15.5822 68.6419 15.0733 68.6069 14.5511C68.5248 13.6516 68.5248 12.7465 68.6069 11.847C68.6355 11.3435 68.7659 10.8511 68.9902 10.3997C69.2144 9.94833 69.5279 9.54739 69.9115 9.22124C70.711 8.53459 71.7362 8.16991 72.7885 8.19787C73.3326 8.18555 73.8734 8.2874 74.376 8.49691C74.7961 8.6735 75.1719 8.94139 75.4763 9.28127C75.7807 9.62115 76.006 10.0245 76.136 10.4623C76.2735 10.9105 76.3424 11.377 76.3405 11.8458H69.8986V14.5508H80.0822C80.1033 14.3839 80.114 14.2158 80.1142 14.0476V13.5449C80.1378 12.3321 79.9515 11.1244 79.5637 9.97541Z" fill="black"/>
</g>
<defs>
<clipPath id="clip0_0_164">
<rect width="96" height="30" fill="white"/>
</clipPath>
</defs>
</svg>
