<svg width="86" height="26" viewBox="0 0 86 26" fill="none" xmlns="http://www.w3.org/2000/svg">
<g clip-path="url(#clip0_0_5)">
<path fill-rule="evenodd" clip-rule="evenodd" d="M0.0100098 20.3097C0.0100098 23.5728 2.94594 25.9959 6.66531 25.9959C10.0914 25.9959 13.3206 23.9932 13.3206 20.5037C13.3206 17.4021 10.8082 15.1729 8.49269 12.9428C6.50425 11.004 4.61026 9.03282 4.61026 6.48067C4.61026 4.02502 5.65419 3.41159 6.73093 3.41159C7.93792 3.41159 8.85161 4.25148 8.85161 6.70713C8.85161 7.28905 8.8188 7.93496 8.78599 8.4194H13.1606C13.1606 5.31783 10.4523 2.95867 6.92878 2.95867C3.66675 2.95867 0.502147 4.79991 0.502147 8.12795C0.502147 11.4885 2.94892 13.7177 5.26545 15.8828C7.32051 17.8216 9.24233 19.7229 9.24233 22.3814C9.24233 24.8695 8.00254 25.5479 6.9258 25.5479C5.68601 25.5479 4.60927 24.708 4.60927 22.2849C4.60927 21.639 4.64208 20.8631 4.67489 20.3156H0.0100098V20.3097ZM20.3577 25.673V19.1459L21.7934 17.3362L26.1003 25.672H30.7662L24.6637 13.7826L28.8722 8.54838H28.223L20.3607 18.306V-0.013916H15.9563V25.673H20.3607H20.3577ZM35.6051 5.96374C35.9298 5.96591 36.2516 5.90363 36.5516 5.78058C36.8516 5.65753 37.1237 5.47621 37.3517 5.24731C37.5798 5.01841 37.7593 4.74658 37.8795 4.44786C37.9998 4.14915 38.0583 3.8296 38.0518 3.50809C38.0487 3.0255 37.9011 2.55467 37.6277 2.15515C37.3543 1.75564 36.9675 1.44539 36.516 1.26364C36.0646 1.08189 35.5689 1.0368 35.0916 1.13408C34.6143 1.23136 34.1768 1.46664 33.8346 1.81016C33.4923 2.15368 33.2606 2.59 33.1687 3.06395C33.0768 3.5379 33.129 4.02819 33.3185 4.4728C33.508 4.91742 33.8264 5.29638 34.2334 5.56176C34.6404 5.82715 35.1178 5.96704 35.6051 5.96374ZM37.7923 25.673V8.54838H33.3879V25.673H37.7923ZM50.8166 25.673H55.221V13.4636C55.2578 12.7776 55.1507 12.0915 54.9064 11.4485C54.6621 10.8055 54.2859 10.2197 53.8015 9.72789C53.3172 9.2361 52.7352 8.84904 52.0923 8.59112C51.4493 8.33321 50.7594 8.21003 50.066 8.22936C49.0764 8.20166 48.1015 8.47064 47.2689 9.00107C46.4363 9.5315 45.7849 10.2986 45.4001 11.2019V8.54838H40.9957V25.673H45.4001V13.0077C45.4001 11.1665 46.5753 9.8087 48.1412 9.8087C49.7071 9.8087 50.8166 11.1655 50.8166 13.0077V25.673ZM68.2155 25.673H72.6199V13.4636C72.6567 12.7776 72.5495 12.0915 72.3052 11.4485C72.0609 10.8055 71.6847 10.2197 71.2004 9.72789C70.716 9.2361 70.134 8.84904 69.4911 8.59112C68.8482 8.33321 68.1582 8.21003 67.4648 8.22936C66.4753 8.20166 65.5003 8.47064 64.6677 9.00107C63.8351 9.5315 63.1838 10.2986 62.799 11.2019V8.54838H58.3946V25.673H62.799V13.0077C62.799 11.1665 63.9741 9.8087 65.54 9.8087C67.1059 9.8087 68.2155 11.1655 68.2155 13.0077V25.673ZM80.3449 16.8635C81.4647 16.8669 82.5603 16.541 83.493 15.9273C84.4257 15.3136 85.1535 14.4396 85.5844 13.416C86.0152 12.3924 86.1297 11.2652 85.9133 10.1771C85.6969 9.08907 85.1593 8.08906 84.3687 7.30372C83.5781 6.51838 82.5699 5.98304 81.4719 5.76547C80.3739 5.54789 79.2354 5.65788 78.2005 6.0815C77.1656 6.50512 76.281 7.22332 75.6585 8.14517C75.036 9.06702 74.7038 10.1511 74.7037 11.26C74.6815 12.0006 74.8122 12.7379 75.0878 13.4267C75.3633 14.1155 75.7779 14.7414 76.3062 15.2659C76.8345 15.7905 77.4654 16.2028 78.1602 16.4775C78.855 16.7522 79.5991 16.8836 80.3469 16.8635H80.3449ZM80.3449 16.6597C79.2668 16.6595 78.213 16.3427 77.3166 15.7494C76.4203 15.1561 75.7218 14.3128 75.3093 13.3263C74.8969 12.3398 74.789 11.2544 74.9995 10.2072C75.2099 9.16 75.7292 8.19814 76.4916 7.44322C77.2541 6.6883 78.2254 6.17422 79.2828 5.96599C80.3402 5.75776 81.4363 5.86473 82.4323 6.27337C83.4283 6.68202 84.2796 7.37398 84.8786 8.26177C85.4776 9.14956 85.7972 10.1933 85.7972 11.261C85.8203 11.976 85.6951 12.6881 85.4294 13.3534C85.1636 14.0186 84.763 14.6228 84.2522 15.1286C83.7414 15.6345 83.1314 16.0312 82.4597 16.2944C81.788 16.5576 81.0689 16.6816 80.3469 16.6587L80.3449 16.6597ZM77.6983 14.9652H79.6798V11.3221H79.9492L81.5499 14.9652H83.6736L81.8512 11.1823C82.2345 11.0761 82.5734 10.8513 82.8185 10.5408C83.0635 10.2302 83.2019 9.85018 83.2133 9.4562C83.1928 9.1804 83.1166 8.91149 82.9891 8.66547C82.8616 8.41945 82.6854 8.20134 82.471 8.02413C82.2567 7.84692 82.0085 7.71423 81.7413 7.63396C81.4741 7.55368 81.1933 7.52747 80.9156 7.55687H77.6983V14.9652ZM80.0437 7.76167C80.6939 7.76167 81.1691 8.49915 81.1691 9.4562C81.1691 10.4133 80.6939 11.1202 80.0437 11.1202H79.6798V7.76068H80.0437V7.76167Z" fill="black"/>
</g>
<defs>
<clipPath id="clip0_0_5">
<rect width="86" height="26" fill="white"/>
</clipPath>
</defs>
</svg>
