<svg width="124" height="30" viewBox="0 0 124 30" fill="none" xmlns="http://www.w3.org/2000/svg">
<g clip-path="url(#clip0_0_149)">
<path d="M117.438 12.1862C118.652 12.6945 119.716 13.3747 120.615 14.2196C121.515 15.0716 122.222 16.0597 122.729 17.1981C123.236 18.3366 123.486 19.5323 123.486 20.7924C123.486 22.0812 123.236 23.2912 122.729 24.4296C122.222 25.5681 121.522 26.5633 120.615 27.4082C119.716 28.2602 118.652 28.9261 117.438 29.4201C116.224 29.9141 114.903 30.1576 113.482 30.1576C112.061 30.1576 110.74 29.9141 109.526 29.4201C108.313 28.9261 107.249 28.253 106.349 27.4082C105.449 26.5561 104.742 25.5681 104.235 24.4296C103.728 23.2912 103.479 22.0812 103.479 20.7924C103.479 19.5323 103.728 18.3366 104.235 17.1981C104.742 16.0597 105.442 15.0645 106.349 14.2196C107.249 13.3676 108.313 12.6945 109.526 12.1862C110.74 11.6778 112.061 11.4272 113.482 11.4272C114.903 11.4272 116.217 11.685 117.438 12.1862ZM115.981 28.8831C116.581 28.3747 117.024 27.7089 117.317 26.8926C117.602 26.0693 117.781 25.1241 117.852 24.0573C117.924 22.9905 117.952 21.9093 117.952 20.8067C117.952 19.7113 117.916 18.6373 117.852 17.5776C117.781 16.5251 117.609 15.58 117.317 14.7638C117.031 13.9404 116.588 13.2745 115.981 12.7661C115.382 12.2578 114.546 12.0072 113.482 12.0072C112.418 12.0072 111.583 12.2578 110.983 12.7661C110.383 13.2745 109.941 13.9404 109.648 14.7638C109.362 15.5872 109.184 16.5251 109.112 17.5776C109.041 18.6301 109.012 19.7113 109.012 20.8067C109.012 21.9022 109.048 22.9833 109.112 24.0573C109.184 25.1241 109.355 26.0693 109.648 26.8926C109.933 27.716 110.376 28.3819 110.983 28.8831C111.583 29.3914 112.418 29.642 113.482 29.642C114.546 29.642 115.382 29.3843 115.981 28.8831Z" fill="black"/>
<path d="M71.2397 21.4081C69.5617 21.4081 68.205 22.7685 68.205 24.451C68.205 25.7971 69.0761 26.9355 70.2829 27.3365C70.2971 27.3365 70.3043 27.3436 70.3114 27.3436C70.4899 27.4009 70.6684 27.4367 70.8541 27.4654C71.1897 27.5226 71.3039 27.6945 71.2825 27.9236C71.2325 28.2744 70.8327 28.7398 70.3328 29.0262C69.5831 29.4343 68.6548 29.642 67.5624 29.642C66.3342 29.642 65.3774 29.3842 64.6919 28.8615C64.0065 28.3389 63.4923 27.673 63.1353 26.8639C62.7783 26.0549 62.5641 25.1527 62.4784 24.1503C62.3927 23.1479 62.357 22.1527 62.357 21.1718V19.3245H74.4528C74.4528 17.9284 74.2101 16.7255 73.7174 15.7303C73.2247 14.7279 72.5963 13.9188 71.8323 13.2816C71.0683 12.6515 70.2043 12.1861 69.2475 11.8854C68.2907 11.5847 67.3339 11.4343 66.3771 11.4343C65.0347 11.4343 63.7851 11.6992 62.6284 12.2362C61.4645 12.7732 60.4577 13.4677 59.5937 14.3341C58.7297 15.2004 58.0585 16.1885 57.5658 17.3126C57.0731 18.4367 56.8304 19.5895 56.8304 20.7637C56.8304 22.2458 57.0874 23.5632 57.6087 24.7303C58.1299 25.8973 58.844 26.8854 59.7579 27.6873C60.6719 28.4964 61.7429 29.1121 62.9782 29.5346C64.2064 29.957 65.5345 30.1718 66.9554 30.1718C68.155 30.1718 69.1832 30 70.0329 29.6563C70.8826 29.3126 71.5895 28.8902 72.1679 28.3818C72.5392 28.0596 72.8463 27.7088 73.1176 27.3508C73.1247 27.3365 73.139 27.3222 73.1462 27.3078C73.189 27.2506 73.2318 27.1933 73.2747 27.136C73.4318 26.914 73.5817 26.6706 73.696 26.4128C73.7031 26.4057 73.7031 26.3914 73.7031 26.3842C73.8102 26.1766 73.903 25.9689 73.9816 25.7756C73.9959 25.7398 74.0173 25.704 74.0316 25.6682C74.0887 25.5393 74.1315 25.4033 74.1744 25.2601C74.1815 25.2315 74.1958 25.2028 74.2029 25.1742C74.2029 25.167 74.1958 25.167 74.1958 25.1599C74.2029 25.1455 74.2029 25.1241 74.2029 25.1097C74.2029 25.0954 74.2101 25.0883 74.2172 25.0739H74.2101C74.2529 24.8735 74.2815 24.6658 74.2815 24.451C74.2815 22.7685 72.9177 21.4081 71.2397 21.4081ZM62.507 16.5035C62.5712 15.7231 62.7355 14.9928 62.9782 14.3269C63.221 13.6539 63.5994 13.1026 64.1064 12.6587C64.6134 12.2219 65.3274 12 66.2557 12C66.9126 12 67.4267 12.1503 67.7909 12.451C68.1622 12.7517 68.4263 13.1241 68.5906 13.5608C68.7548 13.9976 68.8476 14.4415 68.8762 14.8782C68.9048 15.315 68.919 15.6873 68.919 15.988V18.7446H62.357C62.3927 18.0358 62.4356 17.284 62.507 16.5035Z" fill="black"/>
<path d="M100.358 29.062V12.0071H94.1103V12.5799H95.3528V29.062H94.1103V29.6419H101.601V29.062H100.358Z" fill="black"/>
<path d="M96.9451 6.1288C96.9451 6.13596 96.9451 6.13596 96.9451 6.1288C96.9522 6.13596 96.9593 6.13596 96.9736 6.13596C97.1521 6.19324 97.3306 6.22904 97.5163 6.25768C98.216 6.37224 97.9876 7.03095 97.4306 7.53214C97.3092 7.63954 97.4235 7.83286 97.5734 7.77558C98.4445 7.48202 99.9797 6.35075 100.687 4.46054C100.744 4.33166 100.787 4.19562 100.829 4.05243C100.837 4.02379 100.851 3.99515 100.858 3.96651C100.858 3.95935 100.851 3.95935 100.851 3.95219C100.908 3.72307 100.937 3.47963 100.937 3.2362C100.937 1.55362 99.5799 0.193237 97.9019 0.193237C96.2239 0.193237 94.8672 1.55362 94.8672 3.2362C94.8672 4.58942 95.7383 5.72784 96.9451 6.1288Z" fill="black"/>
<path d="M19.6504 29.0621L10.2607 16.9403L9.86802 16.4463L6.41207 19.611H6.205V0H0V0.572792H1.19959V29.0621H0V29.642H7.24036V29.0621H6.205V20.1838H6.41207L13.3382 29.0621H10.3893V29.642H21.2498V29.0621H19.6504Z" fill="black"/>
<path d="M14.2808 17.9713C14.2736 17.9713 14.2808 17.9713 14.2808 17.9713C14.2879 17.9785 14.2951 17.9785 14.3093 17.9785C14.4879 18.0358 14.6664 18.0716 14.852 18.1002C15.5518 18.2148 15.3233 18.8735 14.7663 19.3747C14.6449 19.4821 14.7592 19.6754 14.9091 19.6181C15.7803 19.3245 17.3154 18.1933 18.0223 16.3031C18.0795 16.1742 18.1223 16.0382 18.1652 15.895C18.1723 15.8663 18.1866 15.8377 18.1937 15.809C18.1937 15.8019 18.1866 15.8019 18.1866 15.7947C18.2437 15.5656 18.2723 15.3222 18.2723 15.0787C18.2723 13.3961 16.9156 12.0358 15.2376 12.0358C13.5596 12.0358 12.2029 13.3961 12.2029 15.0787C12.2029 16.4319 13.0741 17.5704 14.2808 17.9713Z" fill="black"/>
<path d="M37.6727 29.062C37.6727 29.0334 37.6727 17.2267 37.6727 17.2267C37.6727 16.074 37.4728 15.1217 37.08 14.3699C36.6802 13.6181 36.1518 13.0167 35.4806 12.5799C34.8094 12.1432 34.0168 11.8425 33.1028 11.6778C33.0529 11.6706 33.0029 11.6635 32.9529 11.6563V11.6492C29.5469 10.926 27.4548 11.4272 26.5908 11.6563C25.6411 11.9141 24.0917 12.6301 23.1349 14.148C23.0492 14.2625 22.7564 14.7852 22.635 15.2864C22.2566 16.926 23.3419 18.5441 24.9842 18.8878C26.6265 19.2315 28.2331 18.179 28.5758 16.5322C28.8472 15.2148 28.2331 13.9188 27.1335 13.2816C27.1192 13.2745 27.1121 13.2745 27.1049 13.2673C26.9478 13.1742 26.7765 13.1026 26.5979 13.0382C26.1124 12.852 26.1767 12.3866 26.5765 12.1503C27.0264 11.8854 28.3545 11.6134 30.4752 11.8353C31.2249 11.9141 31.839 12.2506 32.146 12.7589C32.5031 13.3604 32.6816 14.0334 32.6816 14.7709V20.6348L28.8686 20.642C28.0831 20.642 26.5337 20.7136 25.3198 21.0931C24.67 21.3007 24.106 21.6301 23.599 21.9952C23.092 22.3675 22.685 22.8186 22.3708 23.3484C22.0567 23.8854 21.8996 24.7088 21.8996 25.5036C21.8996 26.2697 22.0781 27.0644 22.4351 27.6014C22.7921 28.1384 23.3348 28.5537 23.8989 28.883C25.0128 29.5418 27.262 29.6348 27.9189 29.6348C28.0403 29.6348 28.1617 29.6348 28.2902 29.6348H34.8308H36.4731H38.8509V29.0549H37.6727V29.062ZM32.6673 29.0334C32.653 29.0334 30.4038 29.0334 30.0468 29.0334C29.4184 29.0334 28.6758 28.9188 28.3188 28.6325C27.9618 28.3461 27.6976 27.9952 27.5191 27.5871C27.3405 27.179 27.2334 26.7494 27.1906 26.3126C27.1478 25.8759 27.1263 25.4893 27.1263 25.1599C27.1263 24.3365 27.2549 23.1193 27.5191 22.6038C27.5476 22.5537 27.5762 22.4964 27.6119 22.4391C28.0903 21.6659 28.9686 21.2219 29.8825 21.2219H32.6673V29.0334Z" fill="black"/>
<path d="M92.5109 15.2935C92.3966 14.7851 92.0967 14.2696 92.0111 14.1551C91.0542 12.6372 89.4048 11.8209 88.5551 11.6634C86.0845 11.2052 84.0567 11.556 82.8785 12.0071H76.9734V12.5799H78.1373V29.062H76.9734V29.6348H84.8707V29.062H83.1356L83.057 12.4653C84.5922 11.8281 87.2556 11.7135 88.5623 12.1503C89.005 12.2935 89.0264 12.852 88.5408 13.0381C88.3623 13.1026 88.1909 13.1742 88.0339 13.2672C88.0267 13.2744 88.0124 13.2744 88.0053 13.2816C86.9057 13.9259 86.2845 15.2147 86.5629 16.5321C86.9057 18.1789 88.5123 19.2314 90.1546 18.8878C91.804 18.5512 92.8893 16.9259 92.5109 15.2935Z" fill="black"/>
<path d="M49.0545 16.5394C49.3972 18.1861 51.0038 19.2386 52.6461 18.895C54.2884 18.5513 55.3737 16.926 54.9953 15.2935C54.881 14.7852 54.5811 14.2697 54.4955 14.1551C53.5386 12.6372 52.1106 11.8783 51.0395 11.6635C49.6257 11.3842 48.3547 11.3842 47.3051 11.5203V-0.107422H46.841C46.841 -0.107422 46.1912 3.22909 42.3139 3.22909V12.5155C41.1072 12.6372 39.8577 12.5728 39.0865 12.315C39.0651 12.3079 39.0508 12.2935 39.0294 12.2864V12.7876C39.0508 12.7947 39.0722 12.8019 39.0936 12.8019C40.2789 13.0382 41.3643 13.074 42.3068 13.0024V25.2386C42.3068 25.7327 42.3354 26.2697 42.3853 26.8425C42.4425 27.4153 42.6495 27.9522 43.0208 28.4463C43.3921 28.9403 43.9634 29.3484 44.7417 29.6778C45.52 30.0071 46.6196 30.1718 48.0405 30.1718C48.5618 30.1718 49.1045 30.1217 49.6828 30.0286C50.2541 29.9284 50.7967 29.7351 51.3037 29.4343C51.8107 29.1336 52.2605 28.704 52.6532 28.1384C53.046 27.5799 53.3316 26.8281 53.4958 25.8974L52.8817 25.7756C52.7746 26.1837 52.6318 26.6133 52.4533 27.0501C52.2748 27.4868 52.0463 27.8806 51.775 28.2243C51.5036 28.568 51.1823 28.8472 50.811 29.0692C50.4397 29.2911 49.997 29.3985 49.4758 29.3985C49.0116 29.3985 48.6332 29.3198 48.3476 29.1551C48.062 28.9904 47.8406 28.7613 47.6907 28.4749C47.5407 28.1885 47.4407 27.8663 47.3836 27.5083C47.3265 27.1503 47.3051 26.7709 47.3051 26.3556V12.0215C48.6618 11.821 50.1684 11.8639 51.0538 12.1575C51.4965 12.3007 51.5179 12.8592 51.0324 13.0453C50.8539 13.1098 50.6825 13.1814 50.5254 13.2744C50.5183 13.2816 50.504 13.2816 50.4968 13.2888C49.4044 13.926 48.7831 15.2219 49.0545 16.5394Z" fill="black"/>
</g>
<defs>
<clipPath id="clip0_0_149">
<rect width="124" height="30" fill="white"/>
</clipPath>
</defs>
</svg>
