<svg width="18" height="18" viewBox="0 0 18 18" fill="none" xmlns="http://www.w3.org/2000/svg">
<path d="M5.65425 16.875C12.447 16.875 16.1629 11.2467 16.1629 6.3743C16.1629 6.2168 16.1629 6.05705 16.1561 5.89955C16.8796 5.37584 17.5039 4.72747 18 3.9848C17.3242 4.28275 16.6081 4.47913 15.8749 4.56755C16.6472 4.10589 17.2257 3.37951 17.5028 2.52342C16.7771 2.95331 15.9829 3.25509 15.1549 3.41555C14.5982 2.8227 13.8616 2.42995 13.0591 2.29815C12.2566 2.16634 11.4331 2.30283 10.716 2.68648C9.99895 3.07012 9.42841 3.6795 9.09276 4.42024C8.7571 5.16098 8.67508 5.99172 8.85938 6.7838C7.39096 6.71017 5.95442 6.3287 4.64292 5.66413C3.33143 4.99957 2.17427 4.06675 1.2465 2.92617C0.775508 3.73964 0.63177 4.70187 0.844477 5.61747C1.05718 6.53307 1.61039 7.33339 2.39175 7.85592C1.80623 7.83603 1.23359 7.6788 0.72 7.39692V7.44755C0.72101 8.29971 1.01622 9.1254 1.55573 9.78503C2.09525 10.4447 2.84597 10.8978 3.681 11.0678C3.36405 11.1551 3.03663 11.1986 2.70788 11.1972C2.47611 11.1979 2.2448 11.1764 2.01712 11.133C2.25313 11.8666 2.71268 12.508 3.3314 12.9673C3.95012 13.4267 4.69703 13.681 5.4675 13.6947C4.15862 14.7227 2.54183 15.2803 0.8775 15.2775C0.584236 15.2788 0.291176 15.2619 0 15.2269C1.6892 16.3038 3.65096 16.8757 5.65425 16.875Z" fill="black"/>
</svg>
